<svg width="65" height="64" viewBox="0 0 65 64" fill="none" xmlns="http://www.w3.org/2000/svg">
<path d="M64.4974 18.2788H61.4375V42.6581H64.4974V18.2788Z" fill="black"/>
<path d="M61.4383 15.2444H58.3984V18.2843H61.4383V15.2444Z" fill="black"/>
<path d="M34.0205 42.6607V18.2814H30.9806V15.2415H43.1602V24.3812H46.2V15.2415H58.3996V12.2016H46.2V9.14169H55.3597V0.00195312H43.1602V12.2016H15.7412V15.2415H12.6813V18.2814H9.64145V42.6607H6.60156V45.7206H27.9207V48.7605H30.9806V64.0001H34.0205V45.7206H43.1602V64.0001H46.2V45.7206H61.4394V42.6607H34.0205ZM46.2 3.04186H52.2998V6.10177H46.2V3.04186ZM30.9806 36.5809H27.9207V39.6208H30.9806V42.6607H15.7412V24.3812H30.9806V36.5809Z" fill="black"/>
<path d="M27.9207 33.5215H24.8809V36.5814H27.9207V33.5215Z" fill="black"/>
<path d="M27.9196 48.7571H21.8398V51.797H27.9196V48.7571Z" fill="black"/>
<path d="M21.8392 30.4774V27.4175H18.7793V30.4774H21.8192V33.5173H24.8791V30.4774H21.8392Z" fill="black"/>
<path d="M21.8392 51.7981H18.7793V54.858H21.8392V51.7981Z" fill="black"/>
<path d="M18.7785 54.8604H3.53906V57.9003H18.7785V54.8604Z" fill="black"/>
<path d="M6.59894 45.7231H3.53906V48.7631H6.59894V45.7231Z" fill="black"/>
<path d="M3.53988 48.7571H0.5V54.8569H3.53988V48.7571Z" fill="black"/>
</svg>
