<svg width="84" height="22" viewBox="0 0 84 22" fill="none" xmlns="http://www.w3.org/2000/svg">
<path d="M0 16.5H5.3982V20.3649C5.3982 21.2679 4.67968 22 3.79333 22H1.60487C0.718525 22 0 21.2679 0 20.3649V16.5ZM0 11H5.3982V16.5H0V11ZM0 5.5H5.3982V11H0V5.5ZM10.7964 16.5H16.1946V20.3649C16.1946 21.2679 15.4761 22 14.5897 22H12.4013C11.5149 22 10.7964 21.2679 10.7964 20.3649V16.5ZM10.7964 11H16.1946V16.5H10.7964V11ZM10.7964 5.5H16.1946V11H10.7964V5.5ZM21.5928 16.5H26.991V20.3649C26.991 21.2679 26.2725 22 25.3861 22H23.1977C22.3113 22 21.5928 21.2679 21.5928 20.3649V16.5ZM21.5928 11H26.991V16.5H21.5928V11ZM21.5928 5.5H25.3861C26.2725 5.5 26.991 6.23207 26.991 7.13513V11H21.5928V5.5ZM16.1946 1.63513C16.1946 0.732073 16.9131 0 17.7995 0H19.9879C20.8743 0 21.5928 0.732075 21.5928 1.63514V5.5H16.1946V1.63513ZM5.3982 0H9.19153C10.0779 0 10.7964 0.732075 10.7964 1.63514V5.5H5.3982V0ZM0 1.63513C0 0.732073 0.718525 0 1.60487 0H5.3982V5.5H0V1.63513Z" fill="white"/>
<path d="M59.5988 0H63.3921C64.2785 0 64.997 0.732075 64.997 1.63514V3.86487C64.997 4.76793 64.2785 5.5 63.3921 5.5H59.5988V0ZM54.2006 0H59.5988V5.5H54.2006V0ZM48.8024 5.5H54.2006V9.36486C54.2006 10.2679 53.4821 11 52.5957 11H50.4073C49.5209 11 48.8024 10.2679 48.8024 9.36486V5.5ZM59.5988 12.6351C59.5988 11.7321 60.3173 11 61.2037 11H63.3921C64.2785 11 64.997 11.7321 64.997 12.6351V16.5H59.5988V12.6351ZM59.5988 16.5H64.997V20.3649C64.997 21.2679 64.2785 22 63.3921 22H59.5988V16.5ZM48.8024 18.1351C48.8024 17.2321 49.5209 16.5 50.4073 16.5H54.2006V22H50.4073C49.5209 22 48.8024 21.2679 48.8024 20.3649V18.1351ZM48.8024 1.63513C48.8024 0.732073 49.5209 0 50.4073 0H54.2006V5.5H48.8024V1.63513ZM54.2006 16.5H59.5988V22H54.2006V16.5Z" fill="white"/>
<path d="M40.5958 0H44.3892C45.2755 0 45.994 0.732075 45.994 1.63514V5.5H40.5958V0ZM40.5958 5.5H45.994V11H40.5958V5.5ZM40.5958 11H45.994V16.5H40.5958V11ZM40.5958 16.5H45.994V20.3649C45.994 21.2679 45.2755 22 44.3892 22H40.5958V16.5ZM35.1976 1.63513C35.1976 0.732073 35.9162 0 36.8025 0H40.5958V5.5H35.1976V1.63513ZM35.1976 16.5H40.5958V22H36.8025C35.9162 22 35.1976 21.2679 35.1976 20.3649V16.5ZM29.7994 7.13514C29.7994 6.23208 30.518 5.5 31.4043 5.5H35.1976V11H29.7994V7.13514ZM29.7994 11H35.1976V16.5H31.4043C30.518 16.5 29.7994 15.7679 29.7994 14.8649V11Z" fill="white"/>
<path d="M67.8054 1.63513C67.8054 0.732073 68.5239 0 69.4103 0H71.5987C72.4851 0 73.2036 0.732075 73.2036 1.63514V5.5H67.8054V1.63513ZM67.8054 5.5H73.2036V11H67.8054V5.5ZM67.8054 11H73.2036V16.5H67.8054V11ZM67.8054 16.5H73.2036V20.3649C73.2036 21.2679 72.4851 22 71.5987 22H69.4103C68.5239 22 67.8054 21.2679 67.8054 20.3649V16.5ZM73.2036 5.5H76.9969C77.8833 5.5 78.6018 6.23207 78.6018 7.13513V11H73.2036V5.5ZM78.6018 11H82.3951C83.2815 11 84 11.7321 84 12.6351V16.5H78.6018V11ZM78.6018 16.5H84V20.3649C84 21.2679 83.2815 22 82.3951 22H80.2067C79.3203 22 78.6018 21.2679 78.6018 20.3649V16.5Z" fill="white"/>
</svg>
