<svg width="64" height="64" viewBox="0 0 64 64" fill="none" xmlns="http://www.w3.org/2000/svg">
<path d="M57.9013 39.6206H54.8613V54.8606H57.9013V39.6206Z" fill="black"/>
<path d="M54.8622 54.8621H51.8223V57.922H54.8622V54.8621Z" fill="black"/>
<path d="M54.8622 33.5225H51.8223V39.6224H54.8622V33.5225Z" fill="black"/>
<path d="M51.8217 6.09985H48.7617V33.5198H51.8217V6.09985Z" fill="black"/>
<path d="M51.8207 57.9243H45.7207V60.9643H51.8207V57.9243Z" fill="black"/>
<path d="M48.7607 3.0647H45.7207V6.10469H48.7607V3.0647Z" fill="black"/>
<path d="M45.723 0.00195312H39.623V3.06194H45.723V0.00195312Z" fill="black"/>
<path d="M45.7206 60.96H18.3008V64H45.7206V60.96Z" fill="black"/>
<path d="M42.683 36.5852H39.623V39.6252H42.683V36.5852Z" fill="black"/>
<path d="M45.723 9.1416H39.623V27.4415H45.723V9.1416Z" fill="black"/>
<path d="M39.622 45.7244H36.582V48.7644H39.622V45.7244Z" fill="black"/>
<path d="M39.622 3.0647H36.582V6.10469H39.622V3.0647Z" fill="black"/>
<path d="M36.5815 6.09985H33.5215V30.4798H36.5815V6.09985Z" fill="black"/>
<path d="M36.5804 48.7585H30.4805V51.8185H36.5804V48.7585Z" fill="black"/>
<path d="M30.4814 45.7206H33.5214V42.6806H36.5813V39.6206H27.4414V42.6806H30.4814V45.7206Z" fill="black"/>
<path d="M33.5204 30.481H30.4805V33.5209H33.5204V30.481Z" fill="black"/>
<path d="M30.4814 6.09985H27.4414V30.4798H30.4814V6.09985Z" fill="black"/>
<path d="M27.4408 3.0647H24.3809V6.10469H27.4408V3.0647Z" fill="black"/>
<path d="M24.3837 36.5852H21.3438V39.6252H24.3837V36.5852Z" fill="black"/>
<path d="M24.3807 0.00195312H18.3008V3.06194H24.3807V0.00195312Z" fill="black"/>
<path d="M24.3807 9.1416H18.3008V27.4415H24.3807V9.1416Z" fill="black"/>
<path d="M18.3011 57.9243H12.2012V60.9643H18.3011V57.9243Z" fill="black"/>
<path d="M18.3041 3.0647H15.2441V6.10469H18.3041V3.0647Z" fill="black"/>
<path d="M15.2411 6.09985H12.2012V33.5198H15.2411V6.09985Z" fill="black"/>
<path d="M12.2026 54.8621H9.14258V57.922H12.2026V54.8621Z" fill="black"/>
<path d="M12.2006 33.5225H9.14062V39.6224H12.2006V33.5225Z" fill="black"/>
<path d="M9.14154 39.6206H6.10156V54.8606H9.14154V39.6206Z" fill="black"/>
</svg>
