<svg width="65" height="64" viewBox="0 0 65 64" fill="none" xmlns="http://www.w3.org/2000/svg">
<path d="M61.8232 45.7203H52.6833V42.6603H55.7233V39.6204H10.0238V42.6603H13.0737V45.7203H3.92383V64.0001H61.8232V45.7203ZM16.1037 42.6603H49.6233V45.7203H16.1037V42.6603ZM58.7832 60.9602H6.9638V48.7603H58.7832V60.9602Z" fill="black"/>
<path d="M58.7826 3.0437H55.7227V39.6234H58.7826V3.0437Z" fill="black"/>
<path d="M52.6812 51.7996H37.4414V54.8595H52.6812V51.7996Z" fill="black"/>
<path d="M40.4833 21.3413H37.4434V24.3813H40.4833V21.3413Z" fill="black"/>
<path d="M40.4814 15.238H37.4414V18.278H40.4814V15.238Z" fill="black"/>
<path d="M37.4426 24.3828H28.3027V27.4228H37.4426V24.3828Z" fill="black"/>
<path d="M28.3022 21.3413H25.2422V24.3813H28.3022V21.3413Z" fill="black"/>
<path d="M28.3022 15.2451H25.2422V18.2851H28.3022V15.2451Z" fill="black"/>
<path d="M13.0742 36.5796H52.6938V6.09985H13.0742V36.5796ZM16.1042 9.13983H49.6238V33.5196H16.1042V9.13983Z" fill="black"/>
<path d="M19.1663 51.7996H13.0664V57.8995H19.1663V51.7996Z" fill="black"/>
<path d="M55.7229 0.00195312H10.0234V3.04192H55.7229V0.00195312Z" fill="black"/>
<path d="M10.0248 3.0437H6.96484V39.6234H10.0248V3.0437Z" fill="black"/>
</svg>
