<svg width="25" height="24" viewBox="0 0 25 24" fill="none" xmlns="http://www.w3.org/2000/svg">
<path fill-rule="evenodd" clip-rule="evenodd" d="M12.125 2C10.1472 2 8.21379 2.58649 6.5693 3.6853C4.92481 4.78412 3.64309 6.3459 2.88621 8.17317C2.12933 10.0004 1.9313 12.0111 2.31715 13.9509C2.703 15.8907 3.65541 17.6725 5.05394 19.0711C6.45246 20.4696 8.23429 21.422 10.1741 21.8079C12.1139 22.1937 14.1246 21.9957 15.9518 21.2388C17.7791 20.4819 19.3409 19.2002 20.4397 17.5557C21.5385 15.9112 22.125 13.9778 22.125 12C22.1224 9.34865 21.0679 6.80665 19.1931 4.93186C17.3184 3.05707 14.7764 2.00265 12.125 2ZM18.738 6.614C19.9687 8.11563 20.6496 9.99256 20.668 11.934C18.7096 11.5478 16.7046 11.4554 14.719 11.66C14.66 11.511 14.597 11.368 14.535 11.219C14.3581 10.8007 14.1694 10.3876 13.969 9.98C15.8239 9.2909 17.4674 8.13087 18.738 6.614ZM10.125 3.707C10.7804 3.55138 11.4514 3.47153 12.125 3.469C14.2133 3.46622 16.2295 4.23226 17.789 5.621C16.6257 7.05985 15.0713 8.13185 13.313 8.708C12.359 6.97416 11.2941 5.30369 10.125 3.707ZM3.767 10.262C4.0403 8.96762 4.60954 7.75409 5.43015 6.71645C6.25076 5.67881 7.30045 4.84523 8.497 4.281C9.6418 5.86935 10.6994 7.51879 11.665 9.222C9.08529 9.89645 6.43138 10.2458 3.765 10.262H3.767ZM5.777 17.722C4.36093 16.1586 3.57679 14.1244 3.577 12.015V11.753C6.5454 11.7609 9.50011 11.3506 12.354 10.534C12.597 11.011 12.831 11.498 13.046 11.983C12.9313 12.0163 12.8193 12.0497 12.71 12.083C9.82572 13.1234 7.37881 15.11 5.768 17.719L5.777 17.722ZM12.125 20.556C10.2253 20.5588 8.37942 19.925 6.882 18.756C8.36289 16.1972 10.7561 14.2927 13.582 13.424L13.637 13.404C14.4458 15.5006 15.0548 17.6689 15.456 19.88C14.4025 20.3273 13.2695 20.5572 12.125 20.556ZM16.897 19.094C16.5187 17.0191 15.9637 14.9803 15.238 13C17.0172 12.7371 18.8322 12.8613 20.559 13.364C20.3727 14.5184 19.9518 15.6225 19.3223 16.608C18.6928 17.5935 17.8681 18.4395 16.899 19.094H16.897Z" fill="#484848"/>
</svg>
