<svg width="25" height="24" viewBox="0 0 25 24" fill="none" xmlns="http://www.w3.org/2000/svg">
<path d="M7.31641 5.00002C7.31614 5.53046 7.10517 6.03906 6.72991 6.41394C6.35465 6.78883 5.84584 6.99929 5.31541 6.99902C4.78497 6.99876 4.27637 6.78779 3.90149 6.41253C3.5266 6.03727 3.31614 5.52846 3.31641 4.99802C3.31667 4.46759 3.52764 3.95899 3.9029 3.5841C4.27816 3.20922 4.78697 2.99876 5.31741 2.99902C5.84784 2.99929 6.35644 3.21026 6.73133 3.58552C7.10621 3.96078 7.31667 4.46959 7.31641 5.00002ZM7.37641 8.48002H3.37641V21H7.37641V8.48002ZM13.6964 8.48002H9.71641V21H13.6564V14.43C13.6564 10.77 18.4264 10.43 18.4264 14.43V21H22.3764V13.07C22.3764 6.90002 15.3164 7.13002 13.6564 10.16L13.6964 8.48002Z" fill="#484848"/>
</svg>
