<svg width="1666" height="194" viewBox="0 0 1666 194" fill="none" xmlns="http://www.w3.org/2000/svg">
<path d="M0 129.333H32.3333V153.667C32.3333 158.085 28.7516 161.667 24.3333 161.667H8C3.58173 161.667 0 158.085 0 153.667V129.333ZM0 97H32.3333V129.333H0V97ZM0 64.6667H32.3333V97H0V64.6667ZM0 32.3333H32.3333V64.6667H0V32.3333ZM64.6667 129.333H97V153.667C97 158.085 93.4183 161.667 89 161.667H72.6667C68.2484 161.667 64.6667 158.085 64.6667 153.667V129.333ZM64.6667 97H97V129.333H64.6667V97ZM64.6667 64.6667H97V97H64.6667V64.6667ZM64.6667 32.3333H97V64.6667H64.6667V32.3333ZM129.333 129.333H161.667V153.667C161.667 158.085 158.085 161.667 153.667 161.667H137.333C132.915 161.667 129.333 158.085 129.333 153.667V129.333ZM129.333 97H161.667V129.333H129.333V97ZM129.333 64.6667H161.667V97H129.333V64.6667ZM129.333 32.3333H153.667C158.085 32.3333 161.667 35.9151 161.667 40.3333V64.6667H129.333V32.3333ZM97 8C97 3.58173 100.582 0 105 0H121.333C125.752 0 129.333 3.58172 129.333 8V32.3333H97V8ZM32.3333 0H56.6667C61.0849 0 64.6667 3.58172 64.6667 8V32.3333H32.3333V0ZM0 8C0 3.58173 3.58172 0 8 0H32.3333V32.3333H0V8Z" fill="black"/>
<path d="M258.825 32.3333H283.158C287.576 32.3333 291.158 35.9151 291.158 40.3333V64.6667H258.825V32.3333ZM258.825 64.6667H291.158V97H258.825V64.6667ZM258.825 97H291.158V129.333H258.825V97ZM258.825 129.333H291.158V153.667C291.158 158.085 287.576 161.667 283.158 161.667H258.825V129.333ZM226.491 40.3333C226.491 35.9151 230.073 32.3333 234.491 32.3333H258.825V64.6667H226.491V40.3333ZM226.491 129.333H258.825V161.667H234.491C230.073 161.667 226.491 158.085 226.491 153.667V129.333ZM194.158 72.6667C194.158 68.2484 197.74 64.6667 202.158 64.6667H226.491V97H194.158V72.6667ZM194.158 97H226.491V129.333H202.158C197.74 129.333 194.158 125.752 194.158 121.333V97Z" fill="black"/>
<path d="M388.032 32.3333H412.365C416.783 32.3333 420.365 35.9151 420.365 40.3333V56.6667C420.365 61.0849 416.783 64.6667 412.365 64.6667H388.032V32.3333ZM355.698 32.3333H388.032V64.6667H355.698V32.3333ZM323.365 64.6667H355.698V89C355.698 93.4183 352.117 97 347.698 97H331.365C326.947 97 323.365 93.4183 323.365 89V64.6667ZM388.032 105C388.032 100.582 391.613 97 396.032 97H412.365C416.783 97 420.365 100.582 420.365 105V129.333H388.032V105ZM388.032 129.333H420.365V153.667C420.365 158.085 416.783 161.667 412.365 161.667H388.032V129.333ZM323.365 137.333C323.365 132.915 326.947 129.333 331.365 129.333H355.698V161.667H331.365C326.947 161.667 323.365 158.085 323.365 153.667V137.333ZM323.365 40.3333C323.365 35.9151 326.947 32.3333 331.365 32.3333H355.698V64.6667H323.365V40.3333ZM355.698 129.333H388.032V161.667H355.698V129.333Z" fill="black"/>
<path d="M452.572 8C452.572 3.58173 456.154 0 460.572 0H476.905C481.324 0 484.905 3.58172 484.905 8V32.3333H452.572V8ZM452.572 32.3333H484.905V64.6667H452.572V32.3333ZM452.572 64.6667H484.905V97H452.572V64.6667ZM452.572 97H484.905V129.333H452.572V97ZM452.572 129.333H484.905V153.667C484.905 158.085 481.324 161.667 476.905 161.667H460.572C456.154 161.667 452.572 158.085 452.572 153.667V129.333ZM484.905 32.3333H509.239C513.657 32.3333 517.239 35.9151 517.239 40.3333V64.6667H484.905V32.3333ZM517.239 64.6667H541.572C545.99 64.6667 549.572 68.2484 549.572 72.6667V97H517.239V64.6667ZM517.239 97H549.572V129.333H517.239V97ZM517.239 129.333H549.572V153.667C549.572 158.085 545.99 161.667 541.572 161.667H525.239C520.82 161.667 517.239 158.085 517.239 153.667V129.333Z" fill="black"/>
<path d="M581.779 40.3333C581.779 35.9151 585.361 32.3333 589.779 32.3333H606.112C610.531 32.3333 614.112 35.9151 614.112 40.3333V64.6667H581.779V40.3333ZM581.779 64.6667H614.112V97H581.779V64.6667ZM581.779 97H614.112V129.333H589.779C585.361 129.333 581.779 125.752 581.779 121.333V97ZM614.112 129.333H646.446V161.667H622.112C617.694 161.667 614.112 158.085 614.112 153.667V129.333ZM646.446 129.333H678.779V153.667C678.779 158.085 675.197 161.667 670.779 161.667H646.446V129.333ZM646.446 97H678.779V129.333H646.446V97ZM646.446 64.6667H678.779V97H646.446V64.6667ZM646.446 40.3333C646.446 35.9151 650.027 32.3333 654.446 32.3333H670.779C675.197 32.3333 678.779 35.9151 678.779 40.3333V64.6667H646.446V40.3333Z" fill="black"/>
<path d="M710.986 40.3333C710.986 35.9151 714.568 32.3333 718.986 32.3333H743.319V64.6667H710.986V40.3333ZM710.986 64.6667H743.319V97H710.986V64.6667ZM710.986 97H743.319V129.333H710.986V97ZM710.986 129.333H743.319V161.667H710.986V129.333ZM710.986 161.667H743.319V186C743.319 190.418 739.738 194 735.319 194H718.986C714.568 194 710.986 190.418 710.986 186V161.667ZM743.319 32.3333H767.653C772.071 32.3333 775.653 35.9151 775.653 40.3333V64.6667H743.319V32.3333ZM775.653 64.6667H799.986C804.404 64.6667 807.986 68.2484 807.986 72.6667V97H775.653V64.6667ZM775.653 97H807.986V121.333C807.986 125.752 804.404 129.333 799.986 129.333H775.653V97ZM743.319 129.333H775.653V153.667C775.653 158.085 772.071 161.667 767.653 161.667H743.319V129.333Z" fill="black"/>
<path d="M1084.13 0H1108.46C1112.88 0 1116.46 3.58172 1116.46 8V24.3333C1116.46 28.7516 1112.88 32.3333 1108.46 32.3333H1084.13V0ZM1051.79 0H1084.13V32.3333H1051.79V0ZM1019.46 32.3333H1051.79V64.6667H1019.46V32.3333ZM1019.46 64.6667H1051.79V97H1027.46C1023.04 97 1019.46 93.4183 1019.46 89V64.6667ZM1051.79 64.6667H1084.13V97H1051.79V64.6667ZM1084.13 64.6667H1108.46C1112.88 64.6667 1116.46 68.2484 1116.46 72.6667V97H1084.13V64.6667ZM1084.13 97H1116.46V129.333H1084.13V97ZM1084.13 129.333H1116.46V153.667C1116.46 158.085 1112.88 161.667 1108.46 161.667H1084.13V129.333ZM1051.79 129.333H1084.13V161.667H1051.79V129.333ZM1019.46 137.333C1019.46 132.915 1023.04 129.333 1027.46 129.333H1051.79V161.667H1027.46C1023.04 161.667 1019.46 158.085 1019.46 153.667V137.333ZM1019.46 8C1019.46 3.58173 1023.04 0 1027.46 0H1051.79V32.3333H1019.46V8Z" fill="black"/>
<path d="M1148.67 8C1148.67 3.58173 1152.25 0 1156.67 0H1173C1177.42 0 1181 3.58172 1181 8V32.3333H1148.67V8ZM1148.67 32.3333H1181V64.6667H1148.67V32.3333ZM1148.67 64.6667H1181V97H1148.67V64.6667ZM1148.67 97H1181V129.333H1148.67V97ZM1148.67 129.333H1181V161.667H1156.67C1152.25 161.667 1148.67 158.085 1148.67 153.667V129.333ZM1181 129.333H1205.33C1209.75 129.333 1213.33 132.915 1213.33 137.333V153.667C1213.33 158.085 1209.75 161.667 1205.33 161.667H1181V129.333ZM1181 32.3333H1205.33C1209.75 32.3333 1213.33 35.9151 1213.33 40.3333V56.6667C1213.33 61.0849 1209.75 64.6667 1205.33 64.6667H1181V32.3333Z" fill="black"/>
<path d="M1245.57 40.3333C1245.57 35.9151 1249.15 32.3333 1253.57 32.3333H1269.91C1274.32 32.3333 1277.91 35.9151 1277.91 40.3333V64.6667H1245.57V40.3333ZM1245.57 64.6667H1277.91V97H1245.57V64.6667ZM1245.57 97H1277.91V129.333H1253.57C1249.15 129.333 1245.57 125.752 1245.57 121.333V97ZM1277.91 129.333H1310.24V161.667H1285.91C1281.49 161.667 1277.91 158.085 1277.91 153.667V129.333ZM1310.24 129.333H1342.57V153.667C1342.57 158.085 1338.99 161.667 1334.57 161.667H1310.24V129.333ZM1310.24 97H1342.57V129.333H1310.24V97ZM1310.24 64.6667H1342.57V97H1310.24V64.6667ZM1310.24 40.3333C1310.24 35.9151 1313.82 32.3333 1318.24 32.3333H1334.57C1338.99 32.3333 1342.57 35.9151 1342.57 40.3333V64.6667H1310.24V40.3333Z" fill="black"/>
<path d="M1439.45 8C1439.45 3.58173 1443.03 0 1447.45 0H1463.78C1468.2 0 1471.78 3.58172 1471.78 8V32.3333H1439.45V8ZM1439.45 32.3333H1471.78V64.6667H1439.45V32.3333ZM1439.45 64.6667H1471.78V97H1439.45V64.6667ZM1439.45 97H1471.78V129.333H1439.45V97ZM1439.45 129.333H1471.78V153.667C1471.78 158.085 1468.2 161.667 1463.78 161.667H1439.45V129.333ZM1407.11 40.3333C1407.11 35.9151 1410.7 32.3333 1415.11 32.3333H1439.45V64.6667H1407.11V40.3333ZM1374.78 72.6667C1374.78 68.2484 1378.36 64.6667 1382.78 64.6667H1407.11V97H1374.78V72.6667ZM1374.78 97H1407.11V129.333H1382.78C1378.36 129.333 1374.78 125.752 1374.78 121.333V97ZM1407.11 129.333H1439.45V161.667H1415.11C1410.7 161.667 1407.11 158.085 1407.11 153.667V129.333Z" fill="black"/>
<path d="M1503.99 129.333H1536.32V153.667C1536.32 158.085 1532.74 161.667 1528.32 161.667H1511.99C1507.57 161.667 1503.99 158.085 1503.99 153.667V129.333ZM1503.99 97H1536.32V129.333H1503.99V97ZM1503.99 72.6667C1503.99 68.2484 1507.57 64.6667 1511.99 64.6667H1528.32C1532.74 64.6667 1536.32 68.2484 1536.32 72.6667V97H1503.99V72.6667ZM1503.99 8C1503.99 3.58173 1507.57 0 1511.99 0H1528.32C1532.74 0 1536.32 3.58172 1536.32 8V24.3333C1536.32 28.7516 1532.74 32.3333 1528.32 32.3333H1511.99C1507.57 32.3333 1503.99 28.7516 1503.99 24.3333V8Z" fill="black"/>
<path d="M1568.59 72.6667C1568.59 68.2484 1572.17 64.6667 1576.59 64.6667H1600.92V97H1568.59V72.6667ZM1568.59 97H1600.92V129.333H1576.59C1572.17 129.333 1568.59 125.752 1568.59 121.333V97ZM1600.92 129.333H1633.26V153.667C1633.26 158.085 1629.68 161.667 1625.26 161.667H1608.92C1604.51 161.667 1600.92 158.085 1600.92 153.667V129.333ZM1633.26 97H1665.59V121.333C1665.59 125.752 1662.01 129.333 1657.59 129.333H1633.26V97ZM1633.26 64.6667H1657.59C1662.01 64.6667 1665.59 68.2484 1665.59 72.6667V97H1633.26V64.6667ZM1600.92 40.3333C1600.92 35.9151 1604.51 32.3333 1608.92 32.3333H1625.26C1629.68 32.3333 1633.26 35.9151 1633.26 40.3333V64.6667H1600.92V40.3333Z" fill="black"/>
</svg>
